<mxfile host="app.diagrams.net" modified="2021-09-06T17:30:22.630Z" agent="5.0 (Windows NT 10.0; Win64; x64) AppleWebKit/537.36 (KHTML, like Gecko) Chrome/86.0.4240.183 Safari/537.36" etag="d43Rv86XqMTlUYoIsv89" version="15.0.6" type="github">
  <diagram id="f6tKyAFbPl825OK05Km3" name="Page-1">
    <mxGraphModel dx="1422" dy="1963" grid="1" gridSize="10" guides="1" tooltips="1" connect="1" arrows="1" fold="1" page="1" pageScale="1" pageWidth="827" pageHeight="1169" math="0" shadow="0">
      <root>
        <mxCell id="0" />
        <mxCell id="1" parent="0" />
        <mxCell id="iR6jKJyufpxTlHE_Eqr7-1" value="Google" style="rounded=0;whiteSpace=wrap;html=1;" vertex="1" parent="1">
          <mxGeometry x="480" y="-30" width="120" height="60" as="geometry" />
        </mxCell>
        <mxCell id="iR6jKJyufpxTlHE_Eqr7-2" value="Студент" style="rounded=0;whiteSpace=wrap;html=1;" vertex="1" parent="1">
          <mxGeometry x="160" y="-30" width="120" height="60" as="geometry" />
        </mxCell>
        <mxCell id="iR6jKJyufpxTlHE_Eqr7-3" value="VS" style="rounded=0;whiteSpace=wrap;html=1;" vertex="1" parent="1">
          <mxGeometry x="1230" y="-20" width="120" height="60" as="geometry" />
        </mxCell>
        <mxCell id="iR6jKJyufpxTlHE_Eqr7-4" value="mystat" style="rounded=0;whiteSpace=wrap;html=1;" vertex="1" parent="1">
          <mxGeometry x="800" y="-30" width="120" height="60" as="geometry" />
        </mxCell>
        <mxCell id="iR6jKJyufpxTlHE_Eqr7-5" value="" style="ellipse;html=1;shape=startState;fillColor=#000000;strokeColor=#ff0000;" vertex="1" parent="1">
          <mxGeometry x="190" y="90" width="50" height="50" as="geometry" />
        </mxCell>
        <mxCell id="iR6jKJyufpxTlHE_Eqr7-6" value="" style="edgeStyle=orthogonalEdgeStyle;html=1;verticalAlign=bottom;endArrow=open;endSize=8;strokeColor=#ff0000;startArrow=none;" edge="1" source="iR6jKJyufpxTlHE_Eqr7-12" parent="1" target="iR6jKJyufpxTlHE_Eqr7-7">
          <mxGeometry relative="1" as="geometry">
            <mxPoint x="55" y="180" as="targetPoint" />
            <Array as="points">
              <mxPoint x="210" y="420" />
              <mxPoint x="1310" y="420" />
              <mxPoint x="1310" y="1140" />
            </Array>
          </mxGeometry>
        </mxCell>
        <mxCell id="iR6jKJyufpxTlHE_Eqr7-7" value="" style="ellipse;html=1;shape=endState;fillColor=#000000;strokeColor=#ff0000;" vertex="1" parent="1">
          <mxGeometry x="1190" y="1120" width="40" height="40" as="geometry" />
        </mxCell>
        <mxCell id="iR6jKJyufpxTlHE_Eqr7-8" value="" style="endArrow=none;dashed=1;html=1;dashPattern=1 3;strokeWidth=2;" edge="1" parent="1">
          <mxGeometry width="50" height="50" relative="1" as="geometry">
            <mxPoint x="80" y="1190" as="sourcePoint" />
            <mxPoint x="80" y="-40" as="targetPoint" />
          </mxGeometry>
        </mxCell>
        <mxCell id="iR6jKJyufpxTlHE_Eqr7-9" value="" style="endArrow=none;dashed=1;html=1;dashPattern=1 3;strokeWidth=2;" edge="1" parent="1">
          <mxGeometry width="50" height="50" relative="1" as="geometry">
            <mxPoint x="360" y="1190" as="sourcePoint" />
            <mxPoint x="360" y="-40" as="targetPoint" />
          </mxGeometry>
        </mxCell>
        <mxCell id="iR6jKJyufpxTlHE_Eqr7-10" value="" style="endArrow=none;dashed=1;html=1;dashPattern=1 3;strokeWidth=2;" edge="1" parent="1">
          <mxGeometry width="50" height="50" relative="1" as="geometry">
            <mxPoint x="690" y="1190" as="sourcePoint" />
            <mxPoint x="690" y="-40" as="targetPoint" />
          </mxGeometry>
        </mxCell>
        <mxCell id="iR6jKJyufpxTlHE_Eqr7-11" value="" style="endArrow=none;dashed=1;html=1;dashPattern=1 3;strokeWidth=2;" edge="1" parent="1">
          <mxGeometry width="50" height="50" relative="1" as="geometry">
            <mxPoint x="1170" y="1190" as="sourcePoint" />
            <mxPoint x="1170" y="-40" as="targetPoint" />
          </mxGeometry>
        </mxCell>
        <mxCell id="iR6jKJyufpxTlHE_Eqr7-12" value="включить компьютер" style="rounded=1;whiteSpace=wrap;html=1;" vertex="1" parent="1">
          <mxGeometry x="160" y="200" width="110" height="40" as="geometry" />
        </mxCell>
        <mxCell id="iR6jKJyufpxTlHE_Eqr7-13" value="" style="edgeStyle=orthogonalEdgeStyle;html=1;verticalAlign=bottom;endArrow=none;endSize=8;strokeColor=#ff0000;" edge="1" parent="1" source="iR6jKJyufpxTlHE_Eqr7-5" target="iR6jKJyufpxTlHE_Eqr7-12">
          <mxGeometry relative="1" as="geometry">
            <mxPoint x="1200" y="1122.6794919243112" as="targetPoint" />
            <mxPoint x="215" y="140" as="sourcePoint" />
            <Array as="points">
              <mxPoint x="215" y="170" />
              <mxPoint x="215" y="170" />
            </Array>
          </mxGeometry>
        </mxCell>
        <mxCell id="iR6jKJyufpxTlHE_Eqr7-22" value="" style="edgeStyle=orthogonalEdgeStyle;rounded=0;orthogonalLoop=1;jettySize=auto;html=1;" edge="1" parent="1" source="iR6jKJyufpxTlHE_Eqr7-14" target="iR6jKJyufpxTlHE_Eqr7-19">
          <mxGeometry relative="1" as="geometry">
            <mxPoint x="290" y="460" as="targetPoint" />
            <Array as="points">
              <mxPoint x="210" y="425" />
            </Array>
          </mxGeometry>
        </mxCell>
        <mxCell id="iR6jKJyufpxTlHE_Eqr7-14" value="открыть google" style="rounded=1;whiteSpace=wrap;html=1;" vertex="1" parent="1">
          <mxGeometry x="160" y="350" width="110" height="30" as="geometry" />
        </mxCell>
        <mxCell id="iR6jKJyufpxTlHE_Eqr7-15" value="Есть интернет" style="rhombus;whiteSpace=wrap;html=1;fillColor=#ffffc0;strokeColor=#ff0000;" vertex="1" parent="1">
          <mxGeometry x="170" y="250" width="80" height="40" as="geometry" />
        </mxCell>
        <mxCell id="iR6jKJyufpxTlHE_Eqr7-16" value="нет" style="edgeStyle=orthogonalEdgeStyle;html=1;align=left;verticalAlign=bottom;endArrow=open;endSize=8;strokeColor=#ff0000;" edge="1" source="iR6jKJyufpxTlHE_Eqr7-15" parent="1" target="iR6jKJyufpxTlHE_Eqr7-7">
          <mxGeometry x="-0.8791" y="-30" relative="1" as="geometry">
            <mxPoint x="210" y="1290" as="targetPoint" />
            <Array as="points">
              <mxPoint x="130" y="270" />
              <mxPoint x="130" y="1230" />
              <mxPoint x="1210" y="1230" />
            </Array>
            <mxPoint as="offset" />
          </mxGeometry>
        </mxCell>
        <mxCell id="iR6jKJyufpxTlHE_Eqr7-17" value="да" style="edgeStyle=orthogonalEdgeStyle;html=1;align=left;verticalAlign=top;endArrow=open;endSize=8;strokeColor=#ff0000;" edge="1" source="iR6jKJyufpxTlHE_Eqr7-15" parent="1">
          <mxGeometry x="-1" relative="1" as="geometry">
            <mxPoint x="210" y="350" as="targetPoint" />
          </mxGeometry>
        </mxCell>
        <mxCell id="iR6jKJyufpxTlHE_Eqr7-18" value="конец" style="text;align=center;fontStyle=1;verticalAlign=middle;spacingLeft=3;spacingRight=3;strokeColor=none;rotatable=0;points=[[0,0.5],[1,0.5]];portConstraint=eastwest;" vertex="1" parent="1">
          <mxGeometry x="1210" y="1110" width="80" height="26" as="geometry" />
        </mxCell>
        <mxCell id="iR6jKJyufpxTlHE_Eqr7-39" value="" style="edgeStyle=orthogonalEdgeStyle;rounded=0;orthogonalLoop=1;jettySize=auto;html=1;" edge="1" parent="1" source="iR6jKJyufpxTlHE_Eqr7-25" target="iR6jKJyufpxTlHE_Eqr7-36">
          <mxGeometry relative="1" as="geometry" />
        </mxCell>
        <mxCell id="iR6jKJyufpxTlHE_Eqr7-38" value="не верный" style="edgeStyle=orthogonalEdgeStyle;html=1;align=left;verticalAlign=top;endArrow=open;endSize=8;strokeColor=#ff0000;" edge="1" source="iR6jKJyufpxTlHE_Eqr7-36" parent="1">
          <mxGeometry x="-0.9481" y="10" relative="1" as="geometry">
            <mxPoint x="690" y="420" as="targetPoint" />
            <Array as="points">
              <mxPoint x="740" y="480" />
              <mxPoint x="710" y="480" />
              <mxPoint x="710" y="430" />
            </Array>
            <mxPoint as="offset" />
          </mxGeometry>
        </mxCell>
        <mxCell id="iR6jKJyufpxTlHE_Eqr7-43" value="нету нового д.з." style="edgeStyle=orthogonalEdgeStyle;html=1;align=left;verticalAlign=top;endArrow=open;endSize=8;strokeColor=#ff0000;entryX=0;entryY=0.5;entryDx=0;entryDy=0;" edge="1" source="iR6jKJyufpxTlHE_Eqr7-41" parent="1" target="iR6jKJyufpxTlHE_Eqr7-7">
          <mxGeometry x="-0.8812" y="-90" relative="1" as="geometry">
            <mxPoint x="880" y="1150" as="targetPoint" />
            <Array as="points">
              <mxPoint x="880" y="1140" />
            </Array>
            <mxPoint as="offset" />
          </mxGeometry>
        </mxCell>
        <mxCell id="iR6jKJyufpxTlHE_Eqr7-48" value="" style="edgeStyle=orthogonalEdgeStyle;rounded=0;orthogonalLoop=1;jettySize=auto;html=1;" edge="1" parent="1" source="iR6jKJyufpxTlHE_Eqr7-44" target="iR6jKJyufpxTlHE_Eqr7-46">
          <mxGeometry relative="1" as="geometry" />
        </mxCell>
        <mxCell id="iR6jKJyufpxTlHE_Eqr7-44" value="скачать домашнее&lt;br&gt;задание" style="rounded=1;whiteSpace=wrap;html=1;" vertex="1" parent="1">
          <mxGeometry x="1020" y="395" width="100" height="40" as="geometry" />
        </mxCell>
        <mxCell id="iR6jKJyufpxTlHE_Eqr7-50" value="" style="edgeStyle=orthogonalEdgeStyle;rounded=0;orthogonalLoop=1;jettySize=auto;html=1;" edge="1" parent="1" source="iR6jKJyufpxTlHE_Eqr7-46" target="iR6jKJyufpxTlHE_Eqr7-49">
          <mxGeometry relative="1" as="geometry" />
        </mxCell>
        <mxCell id="iR6jKJyufpxTlHE_Eqr7-46" value="открыть VS" style="rounded=1;whiteSpace=wrap;html=1;" vertex="1" parent="1">
          <mxGeometry x="1175" y="400" width="70" height="30" as="geometry" />
        </mxCell>
        <mxCell id="iR6jKJyufpxTlHE_Eqr7-52" value="" style="edgeStyle=orthogonalEdgeStyle;rounded=0;orthogonalLoop=1;jettySize=auto;html=1;" edge="1" parent="1" source="iR6jKJyufpxTlHE_Eqr7-49" target="iR6jKJyufpxTlHE_Eqr7-51">
          <mxGeometry relative="1" as="geometry" />
        </mxCell>
        <mxCell id="iR6jKJyufpxTlHE_Eqr7-49" value="создать&lt;br&gt;новый проект" style="whiteSpace=wrap;html=1;rounded=1;" vertex="1" parent="1">
          <mxGeometry x="1270" y="470" width="80" height="30" as="geometry" />
        </mxCell>
        <mxCell id="iR6jKJyufpxTlHE_Eqr7-58" value="" style="edgeStyle=orthogonalEdgeStyle;rounded=0;orthogonalLoop=1;jettySize=auto;html=1;" edge="1" parent="1" source="iR6jKJyufpxTlHE_Eqr7-51" target="iR6jKJyufpxTlHE_Eqr7-57">
          <mxGeometry relative="1" as="geometry" />
        </mxCell>
        <mxCell id="iR6jKJyufpxTlHE_Eqr7-51" value="подключить sfml" style="rounded=1;whiteSpace=wrap;html=1;" vertex="1" parent="1">
          <mxGeometry x="1260" y="540" width="100" height="30" as="geometry" />
        </mxCell>
        <mxCell id="iR6jKJyufpxTlHE_Eqr7-55" value="" style="shape=line;html=1;strokeWidth=6;strokeColor=#ff0000;" vertex="1" parent="1">
          <mxGeometry x="810" y="415" width="200" height="10" as="geometry" />
        </mxCell>
        <mxCell id="iR6jKJyufpxTlHE_Eqr7-56" value="" style="edgeStyle=orthogonalEdgeStyle;html=1;verticalAlign=bottom;endArrow=open;endSize=8;strokeColor=#ff0000;" edge="1" source="iR6jKJyufpxTlHE_Eqr7-55" parent="1">
          <mxGeometry relative="1" as="geometry">
            <mxPoint x="940" y="730" as="targetPoint" />
            <Array as="points">
              <mxPoint x="940" y="495" />
            </Array>
          </mxGeometry>
        </mxCell>
        <mxCell id="iR6jKJyufpxTlHE_Eqr7-41" value="скачать домашку" style="rhombus;whiteSpace=wrap;html=1;fillColor=#ffffc0;strokeColor=#ff0000;" vertex="1" parent="1">
          <mxGeometry x="840" y="400" width="80" height="40" as="geometry" />
        </mxCell>
        <mxCell id="iR6jKJyufpxTlHE_Eqr7-42" value="есть новое д.з." style="edgeStyle=orthogonalEdgeStyle;html=1;align=left;verticalAlign=bottom;endArrow=open;endSize=8;strokeColor=#ff0000;" edge="1" source="iR6jKJyufpxTlHE_Eqr7-41" parent="1">
          <mxGeometry x="-1" y="10" relative="1" as="geometry">
            <mxPoint x="1020" y="420" as="targetPoint" />
            <mxPoint as="offset" />
          </mxGeometry>
        </mxCell>
        <mxCell id="iR6jKJyufpxTlHE_Eqr7-36" value="аутентификация" style="rhombus;whiteSpace=wrap;html=1;fillColor=#ffffc0;strokeColor=#ff0000;" vertex="1" parent="1">
          <mxGeometry x="700" y="400" width="100" height="40" as="geometry" />
        </mxCell>
        <mxCell id="iR6jKJyufpxTlHE_Eqr7-37" value="верный пароль" style="edgeStyle=orthogonalEdgeStyle;html=1;align=left;verticalAlign=bottom;endArrow=open;endSize=8;strokeColor=#ff0000;" edge="1" source="iR6jKJyufpxTlHE_Eqr7-36" parent="1">
          <mxGeometry x="-1" y="22" relative="1" as="geometry">
            <mxPoint x="840" y="420" as="targetPoint" />
            <mxPoint x="-20" y="12" as="offset" />
          </mxGeometry>
        </mxCell>
        <mxCell id="iR6jKJyufpxTlHE_Eqr7-57" value="посмотреть задание" style="whiteSpace=wrap;html=1;rounded=1;" vertex="1" parent="1">
          <mxGeometry x="900" y="530" width="80" height="35" as="geometry" />
        </mxCell>
        <mxCell id="iR6jKJyufpxTlHE_Eqr7-76" value="" style="edgeStyle=orthogonalEdgeStyle;rounded=0;orthogonalLoop=1;jettySize=auto;html=1;" edge="1" parent="1" source="iR6jKJyufpxTlHE_Eqr7-59">
          <mxGeometry relative="1" as="geometry">
            <mxPoint x="1070" y="600" as="targetPoint" />
          </mxGeometry>
        </mxCell>
        <mxCell id="iR6jKJyufpxTlHE_Eqr7-59" value="есть вопросы" style="rhombus;whiteSpace=wrap;html=1;fillColor=#ffffc0;strokeColor=#ff0000;" vertex="1" parent="1">
          <mxGeometry x="900" y="580" width="90" height="40" as="geometry" />
        </mxCell>
        <mxCell id="iR6jKJyufpxTlHE_Eqr7-60" value="нет" style="edgeStyle=orthogonalEdgeStyle;html=1;align=left;verticalAlign=bottom;endArrow=open;endSize=8;strokeColor=#ff0000;startArrow=none;" edge="1" source="iR6jKJyufpxTlHE_Eqr7-77" parent="1" target="iR6jKJyufpxTlHE_Eqr7-62">
          <mxGeometry x="-0.619" relative="1" as="geometry">
            <mxPoint x="1260" y="600" as="targetPoint" />
            <mxPoint as="offset" />
          </mxGeometry>
        </mxCell>
        <mxCell id="iR6jKJyufpxTlHE_Eqr7-61" value="да" style="edgeStyle=orthogonalEdgeStyle;html=1;align=left;verticalAlign=top;endArrow=open;endSize=8;strokeColor=#ff0000;entryX=1;entryY=0.5;entryDx=0;entryDy=0;" edge="1" source="iR6jKJyufpxTlHE_Eqr7-59" parent="1" target="iR6jKJyufpxTlHE_Eqr7-66">
          <mxGeometry x="-0.8462" y="-30" relative="1" as="geometry">
            <mxPoint x="570" y="585" as="targetPoint" />
            <mxPoint as="offset" />
          </mxGeometry>
        </mxCell>
        <mxCell id="iR6jKJyufpxTlHE_Eqr7-62" value="делать задание" style="rounded=1;whiteSpace=wrap;html=1;" vertex="1" parent="1">
          <mxGeometry x="1260" y="590" width="100" height="30" as="geometry" />
        </mxCell>
        <mxCell id="iR6jKJyufpxTlHE_Eqr7-63" value="" style="shape=line;html=1;strokeWidth=6;strokeColor=#ff0000;" vertex="1" parent="1">
          <mxGeometry x="420" y="420" width="200" height="10" as="geometry" />
        </mxCell>
        <mxCell id="iR6jKJyufpxTlHE_Eqr7-64" value="" style="edgeStyle=orthogonalEdgeStyle;html=1;verticalAlign=bottom;endArrow=open;endSize=8;strokeColor=#ff0000;" edge="1" source="iR6jKJyufpxTlHE_Eqr7-63" parent="1">
          <mxGeometry relative="1" as="geometry">
            <mxPoint x="520" y="780" as="targetPoint" />
          </mxGeometry>
        </mxCell>
        <mxCell id="iR6jKJyufpxTlHE_Eqr7-19" value="написать mystat" style="rounded=1;whiteSpace=wrap;html=1;" vertex="1" parent="1">
          <mxGeometry x="380" y="410" width="110" height="30" as="geometry" />
        </mxCell>
        <mxCell id="iR6jKJyufpxTlHE_Eqr7-25" value="открыть сайт" style="rounded=1;whiteSpace=wrap;html=1;" vertex="1" parent="1">
          <mxGeometry x="560" y="415" width="90" height="20" as="geometry" />
        </mxCell>
        <mxCell id="iR6jKJyufpxTlHE_Eqr7-29" value="" style="edgeStyle=orthogonalEdgeStyle;rounded=0;orthogonalLoop=1;jettySize=auto;html=1;" edge="1" parent="1" source="iR6jKJyufpxTlHE_Eqr7-19" target="iR6jKJyufpxTlHE_Eqr7-25">
          <mxGeometry relative="1" as="geometry" />
        </mxCell>
        <mxCell id="iR6jKJyufpxTlHE_Eqr7-66" value="найти ответ" style="rhombus;whiteSpace=wrap;html=1;fillColor=#ffffc0;strokeColor=#ff0000;" vertex="1" parent="1">
          <mxGeometry x="480" y="570" width="80" height="40" as="geometry" />
        </mxCell>
        <mxCell id="iR6jKJyufpxTlHE_Eqr7-67" value="есть ответ" style="edgeStyle=orthogonalEdgeStyle;html=1;align=left;verticalAlign=bottom;endArrow=open;endSize=8;strokeColor=#ff0000;" edge="1" source="iR6jKJyufpxTlHE_Eqr7-66" parent="1" target="iR6jKJyufpxTlHE_Eqr7-62">
          <mxGeometry x="-0.8372" relative="1" as="geometry">
            <mxPoint x="660" y="590" as="targetPoint" />
            <Array as="points">
              <mxPoint x="520" y="640" />
              <mxPoint x="910" y="640" />
              <mxPoint x="910" y="650" />
              <mxPoint x="1310" y="650" />
            </Array>
            <mxPoint as="offset" />
          </mxGeometry>
        </mxCell>
        <mxCell id="iR6jKJyufpxTlHE_Eqr7-68" value="нет" style="edgeStyle=orthogonalEdgeStyle;html=1;align=left;verticalAlign=top;endArrow=open;endSize=8;strokeColor=#ff0000;entryX=0.5;entryY=0;entryDx=0;entryDy=0;" edge="1" source="iR6jKJyufpxTlHE_Eqr7-66" parent="1" target="iR6jKJyufpxTlHE_Eqr7-66">
          <mxGeometry x="-0.4286" y="10" relative="1" as="geometry">
            <mxPoint x="520" y="530" as="targetPoint" />
            <Array as="points">
              <mxPoint x="470" y="590" />
              <mxPoint x="470" y="550" />
              <mxPoint x="520" y="550" />
            </Array>
            <mxPoint as="offset" />
          </mxGeometry>
        </mxCell>
        <mxCell id="iR6jKJyufpxTlHE_Eqr7-79" value="да" style="edgeStyle=orthogonalEdgeStyle;html=1;align=left;verticalAlign=top;endArrow=open;endSize=8;strokeColor=#ff0000;entryX=-0.062;entryY=0.808;entryDx=0;entryDy=0;entryPerimeter=0;" edge="1" source="iR6jKJyufpxTlHE_Eqr7-77" parent="1" target="iR6jKJyufpxTlHE_Eqr7-18">
          <mxGeometry x="-1" relative="1" as="geometry">
            <mxPoint x="1090" y="810" as="targetPoint" />
          </mxGeometry>
        </mxCell>
        <mxCell id="iR6jKJyufpxTlHE_Eqr7-77" value="задание&lt;br&gt;готово" style="rhombus;whiteSpace=wrap;html=1;fillColor=#ffffc0;strokeColor=#ff0000;" vertex="1" parent="1">
          <mxGeometry x="1080" y="580" width="80" height="40" as="geometry" />
        </mxCell>
        <mxCell id="iR6jKJyufpxTlHE_Eqr7-80" value="" style="edgeStyle=orthogonalEdgeStyle;html=1;align=left;verticalAlign=bottom;endArrow=none;endSize=8;strokeColor=#ff0000;" edge="1" parent="1" source="iR6jKJyufpxTlHE_Eqr7-59" target="iR6jKJyufpxTlHE_Eqr7-77">
          <mxGeometry x="-0.7778" relative="1" as="geometry">
            <mxPoint x="1260" y="605" as="targetPoint" />
            <mxPoint x="990" y="600" as="sourcePoint" />
            <mxPoint as="offset" />
          </mxGeometry>
        </mxCell>
        <mxCell id="iR6jKJyufpxTlHE_Eqr7-81" value="&lt;span style=&quot;color: rgb(0, 0, 0); font-family: helvetica; font-size: 11px; font-style: normal; font-weight: 400; letter-spacing: normal; text-align: left; text-indent: 0px; text-transform: none; word-spacing: 0px; background-color: rgb(255, 255, 255); display: inline; float: none;&quot;&gt;нет&lt;/span&gt;" style="text;whiteSpace=wrap;html=1;" vertex="1" parent="1">
          <mxGeometry x="1000" y="580" width="40" height="30" as="geometry" />
        </mxCell>
        <mxCell id="iR6jKJyufpxTlHE_Eqr7-84" value="" style="endArrow=open;endFill=1;endSize=12;html=1;entryX=0.5;entryY=1;entryDx=0;entryDy=0;" edge="1" parent="1" target="iR6jKJyufpxTlHE_Eqr7-59">
          <mxGeometry width="160" relative="1" as="geometry">
            <mxPoint x="1270" y="619" as="sourcePoint" />
            <mxPoint x="1430" y="619" as="targetPoint" />
          </mxGeometry>
        </mxCell>
      </root>
    </mxGraphModel>
  </diagram>
</mxfile>
